<?xml version="1.0" encoding="UTF-8"?><svg id="Logo" xmlns="http://www.w3.org/2000/svg" viewBox="0 0 457.06 263.62"><defs><style>.cls-1{fill:#fff;}</style></defs><g><path class="cls-1" d="m246.97,34.02h23.63c11.14,0,17.12,4.56,17.12,13.23,0,4.56-2.32,8-6.06,10.09,5.46,1.79,9.27,5.68,9.27,12.11,0,9.12-7.7,13.91-19.07,13.91h-24.9v-49.35Zm21.38,19.37c3.51,0,5.31-1.64,5.31-4.34s-1.87-4.34-5.31-4.34h-7.63v8.67h7.63Zm2.84,19.29c3.51,0,5.61-1.72,5.61-4.64s-2.09-4.64-5.61-4.64h-10.47v9.27h10.47Z"/><path class="cls-1" d="m294.44,73.49c0-5.91,3.74-9.87,11.89-11.74l9.35-2.17c1.64-.37,2.24-1.12,2.24-2.24,0-1.79-1.42-2.84-4.56-2.84-3.66,0-7.4,2.09-9.27,5.46l-9.42-5.61c3.07-5.61,9.87-10.32,19.22-10.32,11.37,0,16.37,5.61,16.37,15.93v11.59c0,1.42.67,1.94,2.17,1.94h1.27v9.79c-1.42.37-3.51.67-5.53.67-4.86,0-6.95-1.64-8.3-4.49-.3-.6-.52-.9-.97-.9s-.67.3-1.2,1.05c-2.09,2.84-5.53,4.56-10.32,4.56-8.22,0-12.94-4.64-12.94-10.69Zm16.52,1.42c3.81,0,6.95-2.32,6.95-7.93v-.67c-.45.67-1.2,1.05-2.62,1.35l-4.79,1.05c-2.24.52-3.51,1.57-3.51,3.22s1.49,2.99,3.96,2.99Z"/><path class="cls-1" d="m356.12,84.56c-12.04,0-18.47-6.06-18.47-16.37v-22.95h13.23v21.98c0,3.81,1.94,5.91,5.23,5.91s5.23-2.09,5.23-5.91v-21.98h13.23v22.95c0,10.32-6.43,16.37-18.47,16.37Z"/><path class="cls-1" d="m400.16,84.34c-13.23,0-20.94-8.45-20.94-20.04s8.37-20.04,19.96-20.04,19.22,8.3,19.22,20.11v3.14h-26.47c.75,4.19,4.11,6.06,8.15,6.06,3.59,0,5.68-1.35,7.78-3.89l9.2,6.8c-3.74,4.93-9.79,7.85-16.9,7.85Zm5.53-25.12c-.9-3.07-3.22-4.86-6.65-4.86s-5.98,1.79-6.88,4.86h13.53Z"/><path class="cls-1" d="m423.34,45.23h13.16v4.86c0,.45.15.67.52.67s.6-.22,1.35-1.42c2.02-3.29,4.86-4.79,8.45-4.79h.22l.15,13.31h-2.84c-5.31,0-7.85,2.47-7.85,8.15v17.35h-13.16v-38.13Z"/><path class="cls-1" d="m273.06,141.2l-13.46-16.97v28.26h-12.64v-49.35h11.14l16.37,20.71,15.78-20.71h10.84v49.35h-12.71v-27.81l-12.79,16.52c-.52.67-.82.82-1.27.82s-.75-.15-1.27-.82Z"/><path class="cls-1" d="m326.67,153.46c-13.23,0-20.94-8.45-20.94-20.04s8.37-20.04,19.96-20.04,19.22,8.3,19.22,20.11v3.14h-26.47c.75,4.19,4.11,6.06,8.15,6.06,3.59,0,5.68-1.35,7.78-3.89l9.2,6.8c-3.74,4.93-9.79,7.85-16.9,7.85Zm5.53-25.12c-.9-3.07-3.22-4.86-6.65-4.86s-5.98,1.79-6.88,4.86h13.53Z"/><path class="cls-1" d="m377.21,150.32c0-.45-.22-.67-.6-.67-.45,0-.82.3-1.57.9-1.64,1.35-4.49,2.99-8.75,2.99-10.09,0-17.27-8.22-17.27-20.11s7.18-20.11,17.27-20.11c4.26,0,7.1,1.65,8.75,2.99.75.6,1.12.9,1.57.9.37,0,.6-.22.6-.67v-16.37h13.16v52.34h-13.16v-2.17Zm-7.03-8.37c4.71,0,7.63-3.44,7.63-8.52s-2.92-8.52-7.63-8.52-7.85,3.44-7.85,8.52,2.99,8.52,7.85,8.52Z"/><path class="cls-1" d="m404.87,97.76c4.41,0,7.55,2.69,7.55,6.73s-3.14,6.73-7.55,6.73-7.55-2.62-7.55-6.73,3.14-6.73,7.55-6.73Zm6.58,16.6v38.13h-13.16v-38.13h13.16Z"/><path class="cls-1" d="m417.39,142.62c0-5.91,3.74-9.87,11.89-11.74l9.35-2.17c1.64-.37,2.24-1.12,2.24-2.24,0-1.79-1.42-2.84-4.56-2.84-3.66,0-7.4,2.09-9.27,5.46l-9.42-5.61c3.07-5.61,9.87-10.32,19.22-10.32,11.37,0,16.37,5.61,16.37,15.93v11.59c0,1.42.67,1.94,2.17,1.94h1.27v9.79c-1.42.37-3.51.67-5.53.67-4.86,0-6.95-1.64-8.3-4.49-.3-.6-.52-.9-.97-.9s-.67.3-1.2,1.05c-2.09,2.84-5.53,4.56-10.32,4.56-8.22,0-12.94-4.64-12.94-10.69Zm16.52,1.42c3.81,0,6.95-2.32,6.95-7.93v-.67c-.45.67-1.2,1.05-2.62,1.35l-4.79,1.05c-2.24.52-3.51,1.57-3.51,3.22s1.49,2.99,3.96,2.99Z"/><path class="cls-1" d="m243.75,196.43c0-14.58,10.47-25.87,26.92-25.87,10.47,0,17.95,4.71,22.88,12.26l-11.66,6.43c-2.02-3.81-5.68-6.36-11.22-6.36-7.85,0-12.86,5.46-12.86,13.53s5.01,13.38,12.86,13.38c5.23,0,9.35-2.47,11.14-6.43l-7.93-7.48c-.67-.6-.9-1.12-.9-1.5,0-.67.45-1.2,1.5-1.2h22.06v1.65c0,20.86-13.76,27.44-25.87,27.44-16.45,0-26.92-11.29-26.92-25.87Z"/><path class="cls-1" d="m301.4,182.97h13.16v4.86c0,.45.15.67.52.67s.6-.22,1.35-1.42c2.02-3.29,4.86-4.79,8.45-4.79h.22l.15,13.31h-2.84c-5.31,0-7.85,2.47-7.85,8.15v17.35h-13.16v-38.13Z"/><path class="cls-1" d="m326.96,202.04c0-11.81,8.9-20.04,21.09-20.04s21.01,8.22,21.01,20.04-8.97,20.04-21.01,20.04-21.09-8.22-21.09-20.04Zm21.09,8.45c4.86,0,7.93-3.44,7.93-8.45s-3.07-8.45-7.93-8.45-8,3.44-8,8.45,3.07,8.45,8,8.45Z"/><path class="cls-1" d="m391.34,222.3c-12.04,0-18.47-6.06-18.47-16.37v-22.95h13.23v21.98c0,3.81,1.94,5.91,5.23,5.91s5.23-2.09,5.23-5.91v-21.98h13.23v22.95c0,10.32-6.43,16.37-18.47,16.37Z"/><path class="cls-1" d="m415.71,182.97h13.16v2.17c0,.45.22.67.6.67.45,0,.82-.3,1.57-.9,1.64-1.35,4.49-2.99,8.75-2.99,10.09,0,17.27,8.22,17.27,20.11s-7.18,20.11-17.27,20.11c-4.26,0-7.1-1.64-8.75-2.99-.75-.6-1.12-.9-1.57-.9-.37,0-.6.22-.6.67v17.12h-13.16v-53.09Zm20.19,27.59c4.86,0,7.85-3.44,7.85-8.52s-2.99-8.52-7.85-8.52-7.63,3.44-7.63,8.52,2.92,8.52,7.63,8.52Z"/></g><path class="cls-1" d="m118.2,221.1H44.01c-6.65,0-9.98-3.33-9.98-8.45s3.33-8.45,9.98-8.45h74.2c27.12,0,43.24-15.87,43.24-37.88,0-16.64-10.75-29.94-25.84-37.62-6.4-3.33-7.93-6.14-7.93-9.47,0-2.82,1.02-5.37,4.86-9.21,6.4-6.4,12.02-15.87,12.02-27.64,0-18.17-12.28-31.48-37.1-31.48h-56.54v29.18l53.22,30.46c4.09,2.3,5.63,5.63,5.63,8.45,0,3.07-1.54,6.14-5.63,8.45l-55.01,31.74c-7.42,4.35-15.1,1.28-15.1-6.14v-63.22l-17.14-9.73v89.83c0,5.37-3.33,8.7-8.44,8.7s-8.44-3.33-8.44-8.7v-98.53c0-10.24,9.21-15.1,19.19-9.47l14.84,8.45v-25.08c0-7.17,3.84-11.26,10.75-11.26h64.47c33.26,0,52.45,21.5,52.45,46.84,0,13.56-4.09,25.59-13.82,36.09,18.17,10.49,30.7,28.41,30.7,49.91,0,28.66-21.75,54.26-60.38,54.26Zm-32.24-102.12l-35.05-19.45v39.41l35.05-19.96Z"/></svg>